<svg height="200" viewBox="0 0 200 200" width="200" xmlns="http://www.w3.org/2000/svg"><g stroke="#3a3a3c" stroke-width="2"><g fill="#121213"><path d="m20 20h24v24h-24z"/><path d="m56 20h24v24h-24z"/><path d="m92 20h24v24h-24z"/><path d="m128 20h24v24h-24z"/><path d="m164 20h24v24h-24z"/><path d="m20 56h24v24h-24z"/></g><path d="m56 56h24v24h-24z" fill="#fff"/><path d="m92 56h24v24h-24z" fill="#6aaa64"/><path d="m128 56h24v24h-24z" fill="#121213"/><path d="m164 56h24v24h-24z" fill="#c9b458"/><path d="m20 92h24v24h-24z" fill="#c9b458"/><path d="m56 92h24v24h-24z" fill="#6aaa64"/><path d="m92 92h24v24h-24z" fill="#121213"/><path d="m128 92h24v24h-24z" fill="#fff"/><path d="m164 92h24v24h-24z" fill="#6aaa64"/><path d="m20 128h24v24h-24z" fill="#fff"/><path d="m56 128h24v24h-24z" fill="#c9b458"/><path d="m92 128h24v24h-24z" fill="#6aaa64"/><path d="m128 128h24v24h-24z" fill="#121213"/><path d="m164 128h24v24h-24z" fill="#fff"/><path d="m20 164h24v24h-24z" fill="#6aaa64"/><path d="m56 164h24v24h-24z" fill="#6aaa64"/><path d="m92 164h24v24h-24z" fill="#6aaa64"/><path d="m128 164h24v24h-24z" fill="#6aaa64"/><path d="m164 164h24v24h-24z" fill="#6aaa64"/></g></svg>
